# xmcd
#
# Track frame offsets:
#	150
#	19763
#	37909
#	60870
#	78716
#	99012
#	121126
#	140970
#	158791
#	180168
#	199308
#	219740
#
# Disc length: 3311 seconds
#
# Revision: 1
# Processed by: cddbd v1.5.2PL0 Copyright (c) Steve Scherf et al.
# Submitted via: audiograbber 1.83.01
#
DISCID=980ced0c
DTITLE=циыяцос акйаиос (BY DJ ZRAF) - екеухеяос
DYEAR=2007
DGENRE=каийа
TTITLE0=то 'неяа (ма, ма, ма)
TTITLE1=то йяужо лоу суятаяи
TTITLE2=идиа диадяолг
TTITLE3=г секида
TTITLE4=посо се хекы (RADIO MIX)
TTITLE5=неяеис;
TTITLE6=жуцале ьгка
TTITLE7=ыв
TTITLE8=поте дем то йатакаба
TTITLE9=лисо тсицаяо
TTITLE10=о тяацоудистгс
TTITLE11=посо се хекы (BUDDHA MIX)
EXTD=
EXTT0=
EXTT1=
EXTT2=
EXTT3=
EXTT4=
EXTT5=
EXTT6=
EXTT7=
EXTT8=
EXTT9=
EXTT10=
EXTT11=
PLAYORDER=
